HIERARCHY
ROOT Hips
{
    OFFSET 0.000000 0.000000 0.000000
    CHANNELS 6 Xposition Yposition Zposition Zrotation Xrotation Yrotation
        JOINT Chest
        {
            OFFSET -0.000000 30.832245 -0.000000
            CHANNELS 3 Zrotation Xrotation Yrotation
            JOINT Neck
            {
                OFFSET -0.000000 22.747684 0.000000
                CHANNELS 3 Zrotation Xrotation Yrotation
                JOINT Head
                {
                    OFFSET -0.000000 10.755556 0.000000
                    CHANNELS 3 Zrotation Xrotation Yrotation
                    End Site
                    {
                        OFFSET -0.000000 16.622223 0.000000
                    }
                }
            }
            JOINT LeftCollar
            {
                OFFSET -0.000000 22.747684 0.000000
                CHANNELS 3 Zrotation Xrotation Yrotation
                JOINT LeftShoulder
                {
                    OFFSET 19.555553 -0.000000 0.000000
                    CHANNELS 3 Zrotation Xrotation Yrotation
                    JOINT LeftElbow
                    {
                        OFFSET 22.529686 0.000000 0.000000
                        CHANNELS 3 Zrotation Xrotation Yrotation
                        JOINT LeftWrist
                        {
                            OFFSET 26.249420 0.000000 0.000000
                            CHANNELS 3 Zrotation Xrotation Yrotation
                            End Site
                            {
                                OFFSET 0.000000 -14.666668 0.000000
                            }
                        }
                    }
                }
            }
            JOINT RightCollar
            {
                OFFSET -0.000000 22.747684 0.000000
                CHANNELS 3 Zrotation Xrotation Yrotation
                JOINT RightShoulder
                {
                    OFFSET -19.555553 0.000000 0.000000
                    CHANNELS 3 Zrotation Xrotation Yrotation
                    JOINT RightElbow
                    {
                        OFFSET -22.529686 0.000000 0.000000
                        CHANNELS 3 Zrotation Xrotation Yrotation
                        JOINT RightWrist
                        {
                            OFFSET -26.249420 0.000000 0.000000
                            CHANNELS 3 Zrotation Xrotation Yrotation
                            End Site
                            {
                                OFFSET -0.000000 -14.666668 0.000000
                            }
                        }
                    }
                }
            }
        }
    JOINT LeftHip
    {
        OFFSET 11.733333 0.000000 0.000000
        CHANNELS 3 Zrotation Xrotation Yrotation
        JOINT LeftKnee
        {
            OFFSET -0.000000 -34.781296 0.000000
            CHANNELS 3 Zrotation Xrotation Yrotation
            JOINT LeftAnkle
            {
                OFFSET -0.000000 -42.425819 0.000000
                CHANNELS 3 Zrotation Xrotation Yrotation
                End Site
                {
                    OFFSET -0.000000 -4.888888 16.622223
                }
            }
        }
    }
    JOINT RightHip
    {
        OFFSET -11.733333 0.000000 0.000000
        CHANNELS 3 Zrotation Xrotation Yrotation
        JOINT RightKnee
        {
            OFFSET -0.000000 -34.781296 0.000000
            CHANNELS 3 Zrotation Xrotation Yrotation
            JOINT RightAnkle
            {
                OFFSET -0.000000 -42.425819 0.000000
                CHANNELS 3 Zrotation Xrotation Yrotation
                End Site
                {
                    OFFSET -0.000000 -4.888888 16.622223
                }
            }
        }
    }
}
MOTION
Frames:    6
Frame Time:    0.010000
-44.853092    85.188660    -36.083752    -2.104643    -0.003603    51.351814    -1.218780    15.997525    -2.459682    3.169415    -3.579304    -2.987422    3.119357    -0.044548    -3.146808    -10.060265    0.328172    -3.338226    -10.039231    45.445358    -74.799461    24.350807    -6.441219    -29.355131    147.595016    1.672217    34.488167    7.865558    0.224645    3.554279    33.176968    42.791485    56.827106    -5.428243    -2.030802    40.480789    -137.974960    18.182516    -13.581185    12.447029    -20.032991    1.161282    -4.163867    28.500105    -8.828398    -5.197509    -5.937865    21.271477    -3.047570    -17.787666    0.490964    3.522764    23.740049    -10.145284    -2.547529    -8.901094    -17.122362    
-44.703751    85.215675    -36.131718    -1.948065    -0.146831    50.844994    -1.611364    15.977850    -2.093909    3.965627    -3.432595    -2.291626    2.808272    0.279226    -2.413541    -9.912151    0.244569    -2.002621    -10.130458    45.433167    -74.473946    24.309959    -6.450477    -29.390162    147.469162    1.644894    34.351658    8.099970    0.297474    4.613523    33.102928    43.222954    57.008327    -5.116321    -1.847473    40.358143    -137.965393    18.194283    -13.698000    12.246490    -19.342348    1.145382    -3.910572    28.080589    -8.725663    -5.448833    -6.062476    21.848499    -2.992946    -17.481148    0.612307    2.891988    23.844484    -9.415732    -3.110351    -8.858380    -14.818014    
-44.606140    85.247078    -36.222637    -2.064468    -0.165073    50.309849    -1.661917    15.907544    -1.846745    4.148960    -3.533481    -2.149920    2.534870    0.376894    -2.284583    -9.676752    0.188325    -1.773910    -10.180062    45.794441    -74.569298    24.419167    -6.472140    -29.267929    147.613754    2.359066    34.728077    8.086123    0.316203    4.620017    33.390575    43.227345    57.065907    -4.964496    -1.800694    40.308815    -137.028091    18.026548    -13.447023    12.274811    -18.994343    1.039115    -3.984421    27.642963    -8.138701    -5.151083    -6.113660    21.556494    -2.880759    -17.551655    0.777011    2.976126    23.567579    -9.433783    -2.359781    -8.878352    -15.579688    
-44.509434    85.276535    -36.280682    -2.039045    -0.211453    49.938782    -1.688412    15.878966    -1.646495    4.179830    -3.449402    -2.087579    2.431096    0.373869    -2.220513    -9.636069    0.167295    -1.715576    -10.304129    46.013725    -74.396790    24.336750    -6.471604    -29.262283    147.732056    2.666203    34.784996    8.093853    0.336671    4.576070    33.519905    43.311069    57.064552    -4.799289    -1.729328    40.267498    -136.610962    17.940075    -13.342420    12.197761    -18.622965    1.020529    -3.925535    27.340929    -7.905560    -5.118581    -6.172317    21.648478    -2.864901    -17.443148    0.882182    2.856492    23.443378    -9.230977    -2.304018    -8.817807    -15.192978    
-44.395447    85.311569    -36.349586    -2.005607    -0.257112    49.525822    -1.716068    15.851010    -1.422793    4.214764    -3.369840    -1.995217    2.317040    0.387595    -2.126324    -9.595582    0.131843    -1.603540    -10.434943    46.270199    -74.215530    24.352585    -6.435068    -29.244522    147.762817    3.021994    34.925457    8.095566    0.316962    4.563670    33.722599    43.435406    57.002960    -4.666226    -1.680196    40.248894    -136.095657    17.820524    -13.189901    12.104889    -18.212337    1.011981    -3.866689    27.009750    -7.646273    -5.076866    -6.229933    21.751316    -2.869834    -17.311193    0.998201    2.751708    23.278740    -9.011091    -2.351095    -8.697336    -14.770567    
-44.266315    85.350960    -36.429409    -1.967989    -0.297331    49.081898    -1.730690    15.817410    -1.183211    4.226612    -3.280064    -1.899459    2.203290    0.388339    -2.026664    -9.564534    0.103018    -1.491153    -10.586839    46.551071    -74.008255    24.302158    -6.429687    -29.239611    147.900803    3.444824    35.005039    8.080060    0.350100    4.544425    33.980701    43.507881    56.911518    -4.378464    -1.530374    40.185101    -135.612274    17.662842    -13.022615    11.999863    -17.781277    1.012111    -3.816596    26.660950    -7.356410    -5.025329    -6.278728    21.858059    -2.898384    -17.164566    1.119059    2.665663    23.076626    -8.772511    -2.533724    -8.505661    -14.310907    
